HIERARCHY
ROOT joint_Root
{
	OFFSET 0.0 0.0 0.0
	CHANNELS 6 Xposition Yposition Zposition Zrotation Xrotation Yrotation 
	JOINT Hips
	{
		OFFSET -17.1583 93.1646 452.98
		CHANNELS 6 Xposition Yposition Zposition Zrotation Xrotation Yrotation 
		JOINT Spine
		{
			OFFSET 15.7357 0.0 0.0
			CHANNELS 6 Xposition Yposition Zposition Zrotation Xrotation Yrotation 
			JOINT Chest
			{
				OFFSET 8.98455 -0.406207 0.0
				CHANNELS 6 Xposition Yposition Zposition Zrotation Xrotation Yrotation 
				JOINT Neck
				{
					OFFSET 16.3773 0.0 0.0
					CHANNELS 6 Xposition Yposition Zposition Zrotation Xrotation Yrotation 
					JOINT Head
					{
						OFFSET 6.45672 0.0 0.0
						CHANNELS 6 Xposition Yposition Zposition Zrotation Xrotation Yrotation 
						End Site
						{
							OFFSET 0.0 0.0 0.0
						}
					}
				}
				JOINT Shoulder_L
				{
					OFFSET 12.9942 -0.242716 4.98039
					CHANNELS 6 Xposition Yposition Zposition Zrotation Xrotation Yrotation 
					JOINT UpperArm_L
					{
						OFFSET 5.34809 0.0 0.0
						CHANNELS 6 Xposition Yposition Zposition Zrotation Xrotation Yrotation 
						JOINT LowerArm_L
						{
							OFFSET 24.3286 1.87007e-05 0.0
							CHANNELS 6 Xposition Yposition Zposition Zrotation Xrotation Yrotation 
							JOINT Hand_L
							{
								OFFSET 22.2916 0.0 0.0
								CHANNELS 6 Xposition Yposition Zposition Zrotation Xrotation Yrotation 
								End Site
								{
									OFFSET 0.0 0.0 0.0
								}
							}
						}
					}
				}
				JOINT Shoulder_R
				{
					OFFSET 12.9945 -0.242716 -4.98039
					CHANNELS 6 Xposition Yposition Zposition Zrotation Xrotation Yrotation 
					JOINT UpperArm_R
					{
						OFFSET -5.34813 0.0 0.0
						CHANNELS 6 Xposition Yposition Zposition Zrotation Xrotation Yrotation 
						JOINT LowerArm_R
						{
							OFFSET -24.3289 0.000322201 0.0
							CHANNELS 6 Xposition Yposition Zposition Zrotation Xrotation Yrotation 
							JOINT Hand_R
							{
								OFFSET -22.2915 -0.000108084 0.0
								CHANNELS 6 Xposition Yposition Zposition Zrotation Xrotation Yrotation 
								End Site
								{
									OFFSET 0.0 0.0 0.0
								}
							}
						}
					}
				}
			}
		}
		JOINT UpperLeg_L
		{
			OFFSET -2.19248 -6.46944 0.0
			CHANNELS 6 Xposition Yposition Zposition Zrotation Xrotation Yrotation 
			JOINT LowerLeg_L
			{
				OFFSET 39.0811 0.0 -1.23785e-05
				CHANNELS 6 Xposition Yposition Zposition Zrotation Xrotation Yrotation 
				JOINT Foot_L
				{
					OFFSET 40.9854 0.0 -1.26872e-05
					CHANNELS 6 Xposition Yposition Zposition Zrotation Xrotation Yrotation 
					JOINT Toes_L
					{
						OFFSET 11.7543 0.0 0.0
						CHANNELS 6 Xposition Yposition Zposition Zrotation Xrotation Yrotation 
						End Site
						{
							OFFSET 0.0 0.0 0.0
						}
					}
				}
			}
		}
		JOINT UpperLeg_R
		{
			OFFSET -2.19251 6.46944 0.0
			CHANNELS 6 Xposition Yposition Zposition Zrotation Xrotation Yrotation 
			JOINT LowerLeg_R
			{
				OFFSET -39.0811 -0.00228153 -0.0401928
				CHANNELS 6 Xposition Yposition Zposition Zrotation Xrotation Yrotation 
				JOINT Foot_R
				{
					OFFSET -40.9854 0.0 0.0
					CHANNELS 6 Xposition Yposition Zposition Zrotation Xrotation Yrotation 
					JOINT Toes_R
					{
						OFFSET -11.7543 0.0 0.0
						CHANNELS 6 Xposition Yposition Zposition Zrotation Xrotation Yrotation 
						End Site
						{
							OFFSET 0.0 0.0 0.0
						}
					}
				}
			}
		}
	}
}
MOTION
Frames:	6
Frame Time:	0.0333333
0.000000 0.000000 0.000000 0.000000 0.000000 -0.000000 -1.611040 93.053800 -0.247098 86.758200 0.329133 -2.218700 15.735700 0.000005 -0.000001 78.842100 88.033200 -76.858400 8.984550 -0.406207 -0.000000 -3.887360 -0.962312 3.936370 16.377300 -0.000001 -0.000001 2.074890 2.026710 -2.067720 6.456720 -0.000001 -0.000000 4.587830 1.846610 -0.247827 12.994200 -0.242716 4.980390 -92.413200 7.620710 -72.370300 5.348090 -0.000007 -0.000001 -75.016400 14.133300 0.764840 24.328600 0.000019 0.000005 14.536100 27.908600 -28.984700 22.291600 -0.000001 0.000005 -2.886170 4.995130 7.422910 12.994500 -0.242716 -4.980390 88.306900 5.447420 -72.704900 -5.348130 -0.000001 -0.000004 -70.472600 15.893500 -2.009800 -24.328900 0.000322 -0.000009 1.751820 4.634220 -20.745500 -22.291500 -0.000108 -0.000004 4.617720 5.263780 1.065940 -2.192480 -6.469440 -0.000000 -175.698000 1.135100 -5.690590 39.081100 -0.000007 -0.000012 0.152050 -0.435695 19.238300 40.985400 -0.000006 -0.000013 0.002288 7.338760 -71.123400 11.754300 -0.000000 0.000003 0.000290 0.162589 -9.982520 -2.192510 6.469440 -0.000001 -174.576000 6.555650 -179.865000 -39.081100 -0.002282 -0.040193 0.002416 0.005404 9.697820 -40.985400 0.000008 0.000006 -3.209710 2.296990 -67.043100 -11.754300 -0.000006 -0.000006 -0.009643 0.268615 -5.661010
0.000000 0.000000 0.000000 0.000000 0.000000 -0.000000 -1.626060 93.078400 -0.388498 86.794500 0.401026 -2.256650 15.735700 0.000005 -0.000001 79.086100 87.967900 -77.105100 8.984550 -0.406207 -0.000000 -3.755700 -0.968100 3.931850 16.377300 -0.000001 -0.000001 1.723220 1.951560 -1.918230 6.456720 -0.000001 -0.000000 4.215010 1.762080 0.015456 12.994200 -0.242716 4.980390 -92.464200 7.758000 -72.317600 5.348090 -0.000007 -0.000001 -74.742000 9.889190 0.360848 24.328600 0.000019 0.000005 13.802600 26.733400 -28.640300 22.291600 -0.000001 0.000005 -2.931380 4.961310 8.131760 12.994500 -0.242716 -4.980390 88.250600 5.613060 -72.658200 -5.348130 -0.000001 -0.000004 -69.468100 14.271400 -2.311260 -24.328900 0.000322 -0.000009 1.970690 5.050720 -21.357900 -22.291500 -0.000108 -0.000004 3.379520 5.257840 1.224820 -2.192480 -6.469440 -0.000000 -175.708000 1.161270 -5.780140 39.081100 -0.000007 -0.000012 0.146781 -0.423498 19.116100 40.985400 -0.000006 -0.000013 -0.028976 7.406890 -70.908500 11.754300 -0.000000 0.000003 0.000483 0.159050 -10.126200 -2.192510 6.469440 -0.000001 -174.580000 6.626800 -179.971000 -39.081100 -0.002282 -0.040193 0.002535 0.004744 9.625390 -40.985400 0.000008 0.000006 -3.152310 2.233830 -66.940400 -11.754300 -0.000006 -0.000006 -0.009719 0.269195 -5.637290
0.000000 0.000000 0.000000 0.000000 0.000000 -0.000000 -1.651920 93.101000 -0.540129 86.800600 0.510225 -2.277370 15.735700 0.000005 -0.000001 79.203700 87.894600 -77.207900 8.984550 -0.406207 -0.000000 -3.609790 -0.986315 3.961920 16.377300 -0.000001 -0.000001 1.393610 1.846080 -1.777540 6.456720 -0.000001 -0.000000 3.725630 1.634380 0.367264 12.994200 -0.242716 4.980390 -92.519800 7.930250 -72.308800 5.348090 -0.000007 -0.000001 -74.203400 5.479310 0.059761 24.328600 0.000019 0.000005 13.671100 25.618500 -29.360500 22.291600 -0.000001 0.000005 -3.296000 4.907230 9.233340 12.994500 -0.242716 -4.980390 88.211700 5.713060 -72.586100 -5.348130 -0.000001 -0.000004 -68.299800 11.975400 -2.597480 -24.328900 0.000322 -0.000009 2.139960 5.225880 -22.316000 -22.291500 -0.000108 -0.000004 2.258480 5.241800 1.648620 -2.192480 -6.469440 -0.000000 -175.675000 1.288950 -5.930060 39.081100 -0.000007 -0.000012 0.145366 -0.419575 19.109400 40.985400 -0.000006 -0.000013 -0.164775 7.444330 -70.800400 11.754300 -0.000000 0.000003 0.000238 0.163518 -9.944810 -2.192510 6.469440 -0.000001 -174.550000 6.603240 179.932000 -39.081100 -0.002282 -0.040193 0.002523 0.004848 9.562370 -40.985400 0.000008 0.000006 -3.244060 2.142680 -66.815200 -11.754300 -0.000006 -0.000006 -0.009406 0.266812 -5.734740
0.000000 0.000000 0.000000 0.000000 0.000000 -0.000000 -1.679210 93.121600 -0.680045 86.791200 0.540511 -2.283780 15.735700 0.000005 -0.000001 79.852000 87.808400 -77.840500 8.984550 -0.406207 -0.000000 -3.431480 -0.968324 3.995120 16.377300 -0.000001 -0.000001 1.032240 1.697130 -1.559980 6.456720 -0.000001 -0.000000 3.235290 1.539390 0.730389 12.994200 -0.242716 4.980390 -92.564100 8.057150 -72.281300 5.348090 -0.000007 -0.000001 -73.390100 1.440110 0.016783 24.328600 0.000019 0.000005 14.262100 24.410100 -31.594800 22.291600 -0.000001 0.000005 -3.330500 4.873530 9.901940 12.994500 -0.242716 -4.980390 88.206100 5.736190 -72.601100 -5.348130 -0.000001 -0.000004 -67.109500 8.741700 -2.764380 -24.328900 0.000322 -0.000009 2.326070 5.281800 -23.819600 -22.291500 -0.000108 -0.000004 1.550630 5.213330 2.382940 -2.192480 -6.469440 -0.000000 -175.631000 1.253120 -6.028260 39.081100 -0.000007 -0.000012 0.142075 -0.410927 19.072600 40.985400 -0.000006 -0.000013 -0.219372 7.473470 -70.667200 11.754300 -0.000000 0.000003 0.000226 0.163723 -9.936480 -2.192510 6.469440 -0.000001 -174.503000 6.584820 179.869000 -39.081100 -0.002282 -0.040193 0.002529 0.004862 9.465550 -40.985400 0.000008 0.000006 -3.196020 2.099970 -66.686100 -11.754300 -0.000006 -0.000006 -0.009597 0.268269 -5.675130
0.000000 0.000000 0.000000 0.000000 0.000000 -0.000000 -1.718040 93.137800 -0.873116 86.773800 0.598334 -2.259770 15.735700 0.000005 -0.000001 80.292600 87.696400 -78.256800 8.984550 -0.406207 -0.000000 -3.204540 -0.971269 4.045210 16.377300 -0.000001 -0.000001 0.654932 1.523490 -1.331900 6.456720 -0.000001 -0.000000 2.698770 1.404370 1.164940 12.994200 -0.242716 4.980390 -92.570700 8.091330 -72.308100 5.348090 -0.000007 -0.000001 -72.563800 -3.207240 0.020082 24.328600 0.000019 0.000005 15.301100 23.096800 -34.892900 22.291600 -0.000001 0.000005 -3.448200 4.842050 10.514700 12.994500 -0.242716 -4.980390 88.221700 5.691480 -72.616200 -5.348130 -0.000001 -0.000004 -65.883900 5.004570 -2.799000 -24.328900 0.000322 -0.000009 2.494490 5.064280 -26.277000 -22.291500 -0.000108 -0.000004 1.635700 5.175680 3.321820 -2.192480 -6.469440 -0.000000 -175.571000 1.304530 -6.182680 39.081100 -0.000007 -0.000012 0.140733 -0.405359 19.146200 40.985400 -0.000006 -0.000013 -0.414704 7.564750 -70.505900 11.754300 -0.000000 0.000003 0.000422 0.160193 -10.079800 -2.192510 6.469440 -0.000001 -174.436000 6.588670 179.749000 -39.081100 -0.002282 -0.040193 0.002768 0.003423 9.484570 -40.985400 0.000008 0.000006 -3.137630 2.026340 -66.586500 -11.754300 -0.000006 -0.000006 -0.009261 0.265696 -5.780330
0.000000 0.000000 0.000000 0.000000 0.000000 -0.000000 -1.766660 93.145500 -1.027420 86.766700 0.697278 -2.136180 15.735700 0.000005 -0.000001 81.051000 87.545400 -78.993200 8.984550 -0.406207 -0.000000 -2.896360 -0.954710 4.092120 16.377300 -0.000001 -0.000001 0.342591 1.332000 -1.136970 6.456720 -0.000001 -0.000000 2.109900 1.143930 1.660560 12.994200 -0.242716 4.980390 -92.561200 8.108980 -72.405500 5.348090 -0.000007 -0.000001 -71.742000 -8.119260 0.054203 24.328600 0.000019 0.000005 16.678500 21.432700 -39.348900 22.291600 -0.000001 0.000005 -2.474990 4.787580 11.550700 12.994500 -0.242716 -4.980390 88.243500 5.638040 -72.664700 -5.348130 -0.000001 -0.000004 -64.661300 0.426255 -2.570200 -24.328900 0.000322 -0.000009 3.186060 5.541660 -29.968400 -22.291500 -0.000108 -0.000004 2.177360 5.138100 4.226490 -2.192480 -6.469440 -0.000000 -175.519000 1.366980 -6.223400 39.081100 -0.000007 -0.000012 0.140285 -0.402840 19.200400 40.985400 -0.000006 -0.000013 -0.351530 7.600480 -70.424300 11.754300 -0.000000 0.000003 0.000343 0.161636 -10.021200 -2.192510 6.469440 -0.000001 -174.380000 6.646810 179.736000 -39.081100 -0.002282 -0.040193 0.003000 0.002018 9.541310 -40.985400 0.000008 0.000006 -3.004270 1.956170 -66.541000 -11.754300 -0.000006 -0.000006 -0.009479 0.267366 -5.712060
